<?xml version="1.0" standalone="no"?><!DOCTYPE svg PUBLIC "-//W3C//DTD SVG 1.1//EN" "http://www.w3.org/Graphics/SVG/1.1/DTD/svg11.dtd"><svg t="1602268096766" class="icon" viewBox="0 0 1024 1024" version="1.1" xmlns="http://www.w3.org/2000/svg" p-id="4604" xmlns:xlink="http://www.w3.org/1999/xlink" width="32" height="32"><defs><style type="text/css"></style></defs><path d="M164.032 390.848c-5.056 13.44 2.304 21.952 0 73.152-0.64 13.824-59.328 76.16-82.624 140.928-23.04 64.192-26.24 131.328 9.408 157.696 35.648 26.368 68.864-87.808 73.216-71.168 1.92 7.232 4.224 14.72 7.04 22.528 11.456 31.104 30.656 65.536 58.432 97.728 5.632 6.592-34.368 18.56-58.368 59.904-24 41.28 6.848 116.416 126.144 116.416 153.984 0 188.416-54.848 191.552-54.528 11.456 0.832 12.224 0 24.448 0 14.784 0 8.64 1.216 22.528 0 7.424-0.704 82.24 65.536 185.856 54.528 176.512-18.816 149.504-78.656 135.68-116.416-14.464-39.424-65.6-57.92-63.36-60.48 42.24-47.232 49.024-76.288 63.36-119.68 5.888-17.856 46.848 98.176 78.336 71.168 13.12-11.264 39.424-58.24 13.12-157.696-26.24-99.52-77.056-122.24-75.968-140.928 2.304-38.848 0.96-66.048-0.96-73.152-9.408-34.176-28.992-26.624-28.992-34.176C842.88 159.744 696.448 0 515.84 0S188.992 159.744 188.992 356.672c0 15.616-13.696 4.032-24.96 34.176" fill="#1296db" p-id="4605"></path></svg>