<?xml version="1.0" standalone="no"?><!DOCTYPE svg PUBLIC "-//W3C//DTD SVG 1.1//EN" "http://www.w3.org/Graphics/SVG/1.1/DTD/svg11.dtd"><svg t="1602268701624" class="icon" viewBox="0 0 1024 1024" version="1.1" xmlns="http://www.w3.org/2000/svg" p-id="5519" xmlns:xlink="http://www.w3.org/1999/xlink" width="32" height="32"><defs><style type="text/css"></style></defs><path d="M730.14784 46.08H288.73728A155.78624 155.78624 0 0 0 133.12 201.68704v615.50592A155.78624 155.78624 0 0 0 288.73728 972.8h441.41056A155.78624 155.78624 0 0 0 885.76 817.19296V201.68704A155.78624 155.78624 0 0 0 730.14784 46.08zM288.73728 116.7872h441.41056a84.992 84.992 0 0 1 84.90496 84.89984V604.672H203.8272V201.68704A84.992 84.992 0 0 1 288.73728 116.7872z m441.41056 785.3056H288.73728a84.992 84.992 0 0 1-84.91008-84.89984v-141.824h611.2256v141.824a84.992 84.992 0 0 1-84.90496 84.89984z m-160.256-104.89344A60.45696 60.45696 0 1 0 509.44 857.6512a60.45696 60.45696 0 0 0 60.45696-60.4672z" fill="#7979F9" p-id="5520"></path></svg>