<?xml version="1.0" standalone="no"?><!DOCTYPE svg PUBLIC "-//W3C//DTD SVG 1.1//EN" "http://www.w3.org/Graphics/SVG/1.1/DTD/svg11.dtd"><svg t="1602251922611" class="icon" viewBox="0 0 1024 1024" version="1.1" xmlns="http://www.w3.org/2000/svg" p-id="1581" xmlns:xlink="http://www.w3.org/1999/xlink" width="32" height="32"><defs><style type="text/css"></style></defs><path d="M798.362518 446.887027l-62.74095 0 0.188288-184.847985c0-109.983927-114.233718-199.095477-255.462253-199.095477-141.042293 0-255.462253 89.11155-255.462253 199.095477l-1.188058 184.847985-64.11525 0c-35.30611 0-62.49024 28.464285-62.49024 55.991222l-1.375324 399.971507c0 27.495214 29.933753 55.991222 65.240887 55.991222l638.905318 0c35.183314 0 62.364373-28.496008 62.364373-55.991222l1.375324-399.971507C863.602382 475.352335 833.545832 446.887027 798.362518 446.887027zM606.764805 446.887027 351.678106 446.887027 351.678106 254.915807c0-54.866608 58.366316-92.453668 128.669498-92.453668 70.364581 0 127.292128 37.586037 127.292128 92.453668L606.764805 446.887027z" p-id="1582" fill="#008FE0"></path></svg>