<?xml version="1.0" standalone="no"?><!DOCTYPE svg PUBLIC "-//W3C//DTD SVG 1.1//EN" "http://www.w3.org/Graphics/SVG/1.1/DTD/svg11.dtd"><svg t="1602229610846" class="icon" viewBox="0 0 1024 1024" version="1.1" xmlns="http://www.w3.org/2000/svg" p-id="10338" width="32" height="32" xmlns:xlink="http://www.w3.org/1999/xlink"><defs><style type="text/css"></style></defs><path d="M890.87 376.23H270.5V308c0-64.21 25.2-124.77 71-170.53s106.32-71 170.53-71 124.77 25.2 170.53 71 71 106.32 71 170.53v19.68a30 30 0 1 0 60 0V308a298 298 0 0 0-23.81-117.15 304.17 304.17 0 0 0-160.6-160.54 300.11 300.11 0 0 0-234.3 0 304.17 304.17 0 0 0-160.54 160.54A298 298 0 0 0 210.5 308v68.23h-77.37a90.1 90.1 0 0 0-90 90v461.63a90.1 90.1 0 0 0 90 90h757.74a90.1 90.1 0 0 0 90-90V466.23a90.1 90.1 0 0 0-90-90z m30 551.63a30 30 0 0 1-30 30H133.13a30 30 0 0 1-30-30V466.23a30 30 0 0 1 30-30h757.74a30 30 0 0 1 30 30z" p-id="10339" fill="#7F7F7F"></path><path d="M512 584a109 109 0 1 0 109 109 109.13 109.13 0 0 0-109-109z m0 158a49 49 0 1 1 49-49 49.05 49.05 0 0 1-49 49z" p-id="10340" fill="#7F7F7F"></path></svg>