<?xml version="1.0" standalone="no"?><!DOCTYPE svg PUBLIC "-//W3C//DTD SVG 1.1//EN" "http://www.w3.org/Graphics/SVG/1.1/DTD/svg11.dtd"><svg t="1602310565248" class="icon" viewBox="0 0 1024 1024" version="1.1" xmlns="http://www.w3.org/2000/svg" p-id="12725" xmlns:xlink="http://www.w3.org/1999/xlink" width="20" height="20"><defs><style type="text/css"></style></defs><path d="M202.91556315 812.0077474A432.5565153 432.5565153 0 0 1 78.0546875 507.40827311c0-239.65318685 194.29212566-433.9453125 433.9453125-433.9453125s433.9453125 194.29212566 433.9453125 433.9453125c0 118.69868002-47.64788411 226.23015625-124.86087565 304.60119629A432.61420248 432.61420248 0 0 1 512 941.35272461a432.61420248 432.61420248 0 0 1-309.08443685-129.34411621z m25.48653808-57.56921712a326.18222656 326.18222656 0 0 1 197.47439129-154.1366862 173.578125 173.578125 0 1 1 172.24701496 0c84.50396159 23.14375 155.2947347 79.46881836 197.47439129 154.1366862A374.63945313 374.63945313 0 0 0 888.0859375 507.40827311c0-207.71515625-168.37078125-376.0859375-376.0859375-376.0859375S135.9140625 299.69311686 135.9140625 507.40827311a374.63945313 374.63945313 0 0 0 92.48889974 247.03025717z" fill="#7979F8" p-id="12726"></path></svg>