<?xml version="1.0" standalone="no"?><!DOCTYPE svg PUBLIC "-//W3C//DTD SVG 1.1//EN" "http://www.w3.org/Graphics/SVG/1.1/DTD/svg11.dtd"><svg t="1602316087973" class="icon" viewBox="0 0 1024 1024" version="1.1" xmlns="http://www.w3.org/2000/svg" p-id="13095" width="128" height="128" xmlns:xlink="http://www.w3.org/1999/xlink"><defs><style type="text/css"></style></defs><path d="M724.48 664.064v-2.56c-15.36-79.872-86.528-138.24-169.984-138.24h-87.04c-84.992 0-157.184 59.904-171.008 141.824-6.656 40.96 26.112 77.824 68.096 77.824h291.84c43.008 0 75.776-37.888 68.096-78.848z m-38.912 35.328c-6.656 8.704-17.92 12.8-29.184 12.8H365.568c-11.264 0-21.504-4.096-28.16-12.8-7.68-8.192-10.24-18.944-8.704-29.184 10.752-67.072 69.632-116.224 139.776-116.224h86.528c68.096 0 126.976 47.104 138.752 112.64l0.512 2.56c1.536 10.752-1.024 22.016-8.704 30.208zM419.84 477.696c25.088 24.576 57.856 36.864 91.136 36.864 31.744 0 63.488-11.776 88.576-34.304l1.024-1.024c43.52-40.448 48.128-105.984 9.216-151.552-25.6-29.696-61.952-45.056-98.304-45.568h-0.512-0.512c-37.376 0-75.264 16.384-100.352 47.616-35.328 44.032-31.744 107.52 9.216 146.944l0.512 1.024z m14.848-128.512c17.92-23.04 45.568-35.84 75.776-36.352 29.184 0 56.32 12.288 74.752 34.304 27.648 32.768 24.576 80.896-7.168 109.568l-1.024 1.024c-18.432 16.384-41.472 25.6-66.048 25.6-26.112 0-50.688-9.728-68.096-27.648h-1.024c-29.696-28.672-32.256-74.24-7.168-106.496z" p-id="13096" fill="#CDCDCD"></path><path d="M833.536 896.512h-645.12v-768h645.12v768z m-614.912-30.72h583.68v-706.56h-583.68v706.56z" p-id="13097" fill="#CDCDCD"></path></svg>