<?xml version="1.0" standalone="no"?><!DOCTYPE svg PUBLIC "-//W3C//DTD SVG 1.1//EN" "http://www.w3.org/Graphics/SVG/1.1/DTD/svg11.dtd"><svg t="1602301657327" class="icon" viewBox="0 0 1024 1024" version="1.1" xmlns="http://www.w3.org/2000/svg" p-id="2084" width="20" height="20" xmlns:xlink="http://www.w3.org/1999/xlink"><defs><style type="text/css"></style></defs><path d="M976 76.8h-928C22.4 76.8 0 99.2 0 124.8V896c0 28.8 22.4 48 48 48h924.8c28.8 0 48-22.4 48-48V124.8c3.2-25.6-19.2-48-44.8-48z m-32 80v428.8L844.8 448c-76.8-86.4-131.2-60.8-172.8 3.2-35.2 57.6-80 137.6-80 137.6C544 672 512 732.8 406.4 672c0 0-86.4-51.2-134.4-86.4-60.8-41.6-115.2 70.4-169.6 134.4l-22.4 25.6V156.8h864z" fill="#cdcdcd" p-id="2085"></path><path d="M195.2 342.4c0 64 54.4 118.4 118.4 118.4s118.4-54.4 118.4-118.4S377.6 224 313.6 224s-118.4 51.2-118.4 118.4z" fill="#cdcdcd" p-id="2086"></path></svg>