<?xml version="1.0" standalone="no"?><!DOCTYPE svg PUBLIC "-//W3C//DTD SVG 1.1//EN" "http://www.w3.org/Graphics/SVG/1.1/DTD/svg11.dtd"><svg t="1602310174213" class="icon" viewBox="0 0 1024 1024" version="1.1" xmlns="http://www.w3.org/2000/svg" p-id="2427" xmlns:xlink="http://www.w3.org/1999/xlink" width="20" height="20"><defs><style type="text/css"></style></defs><path d="M251.76113265 962.4629257a125.27159459 125.27159459 0 0 1-125.09998964-125.09998966L126.66114301 186.63706396A125.27159459 125.27159459 0 0 1 251.76113265 61.5370743l520.56353716 0a125.27159459 125.27159459 0 0 1 125.09998966 125.09998966l0 650.64006963a125.27159459 125.27159459 0 0 1-125.09998966 125.09998964z m0-845.84067077a70.18641395 70.18641395 0 0 0-70.1006115 70.10061148l0 650.64006963a70.18641395 70.18641395 0 0 0 70.1006115 70.10061148l520.56353716 0a70.18641395 70.18641395 0 0 0 70.1006115-70.10061148L842.42528131 186.63706396a70.18641395 70.18641395 0 0 0-70.1006115-70.10061148z" fill="#7979F8" p-id="2428"></path><path d="M306.07409111 539.5425903a27.5425903 27.5425903 0 1 1 0-54.99937814l411.85181778 0a27.5425903 27.5425903 0 1 1 0 54.99937814zM306.07409111 669.61912275a27.5425903 27.5425903 0 1 1 0-54.65616831l281.00306317 0a27.5425903 27.5425903 0 1 1 0 55.08518063zM306.07409111 409.03704556a27.5425903 27.5425903 0 1 1 0-55.08518063l411.85181778 0a27.5425903 27.5425903 0 1 1 0 55.08518063z" fill="#7979F8" p-id="2429"></path></svg>