<?xml version="1.0" standalone="no"?><!DOCTYPE svg PUBLIC "-//W3C//DTD SVG 1.1//EN" "http://www.w3.org/Graphics/SVG/1.1/DTD/svg11.dtd"><svg t="1602420879590" class="icon" viewBox="0 0 1024 1024" version="1.1" xmlns="http://www.w3.org/2000/svg" p-id="2405" width="32" height="32" xmlns:xlink="http://www.w3.org/1999/xlink"><defs><style type="text/css"></style></defs><path d="M501.9648 866.372267l22.203733 0c6.144 0 11.1104-4.9664 11.1104-11.1104L535.278933 344.32c0-6.144-4.9664-11.1104-11.1104-11.1104l-22.203733 0c-6.126933 0-11.1104 4.9664-11.1104 11.1104l0 510.9248C490.8544 861.405867 495.8208 866.372267 501.9648 866.372267zM1012.8896 177.7152 735.197867 177.7152 735.197867 88.866133C735.197867 39.799467 695.415467 0 646.3488 0l-266.581333 0c-49.066667 0-88.866133 39.799467-88.866133 88.866133l0 88.866133L13.243733 177.732267c-6.144 0-11.1104 4.9664-11.1104 11.1104l0 22.2208c0 6.126933 4.9664 11.1104 11.1104 11.1104l122.180267 0 44.424533 710.8608c0 49.066667 39.7824 88.849067 88.866133 88.849067L757.418667 1021.883733c49.083733 0 88.866133-39.7824 88.866133-88.849067l44.4416-710.8608 122.1632 0c6.144 0 11.1104-4.983467 11.1104-11.1104l0-22.2208C1024 182.6816 1019.0336 177.7152 1012.8896 177.7152zM335.342933 88.866133c0-24.541867 19.899733-44.4416 44.424533-44.4416l266.581333 0c24.541867 0 44.4416 19.899733 44.4416 44.4416l0 88.866133L335.342933 177.732267 335.342933 88.866133zM804.334933 898.4576c0 43.639467-35.362133 78.984533-78.984533 78.984533L300.8 977.442133c-43.6224 0-78.984533-35.345067-78.984533-78.984533l-41.949867-676.3008 666.436267 0L804.334933 898.4576zM346.453333 866.372267l22.203733 0c6.144 0 11.1104-4.9664 11.1104-11.1104L379.767467 344.32c0-6.144-4.9664-11.1104-11.1104-11.1104L346.453333 333.2096c-6.144 0-11.1104 4.9664-11.1104 11.1104l0 510.9248C335.342933 861.405867 340.309333 866.372267 346.453333 866.372267zM657.4592 866.372267l22.2208 0c6.109867 0 11.093333-4.9664 11.093333-11.1104L690.773333 344.32c0-6.144-4.983467-11.1104-11.093333-11.1104l-22.2208 0c-6.144 0-11.1104 4.9664-11.1104 11.1104l0 510.9248C646.3488 861.405867 651.3152 866.372267 657.4592 866.372267z" p-id="2406" fill="#bfbfbf"></path></svg>