<?xml version="1.0" standalone="no"?><!DOCTYPE svg PUBLIC "-//W3C//DTD SVG 1.1//EN" "http://www.w3.org/Graphics/SVG/1.1/DTD/svg11.dtd"><svg t="1602429798222" class="icon" viewBox="0 0 1024 1024" version="1.1" xmlns="http://www.w3.org/2000/svg" p-id="6684" xmlns:xlink="http://www.w3.org/1999/xlink" width="32" height="32"><defs><style type="text/css"></style></defs><path d="M807.3 274.5h-622c-44.5 0-80.5 36.1-80.5 80.5v491.8c0 44.5 36.1 80.5 80.5 80.5h622.1c44.4 0 80.5-36.1 80.5-80.5V355c0-44.5-36-80.5-80.5-80.5h-0.1z m32.8 558.6c0 23.7-19.2 42.7-42.8 42.7h-602c-23.6 0-42.8-19.1-42.8-42.8V368.6c0-23.7 19.2-42.8 42.8-42.8h602c23.7 0 42.8 19.2 42.8 42.8v464.5z" fill="#CD2E1A" p-id="6685"></path><path d="M496.9 100.6C361.2 100.6 251 210.7 251 346.5v143.9c0 65 24.8-24 65.9 19.9-4.6-16.3 11.1-33.6-8-38.3l8-131.1c9.7-103.3 76.9-182.9 180-182.9s168 85.6 181.1 189l5.7 137.2c0 17.7 26.4 25 21.6 41.3 41.1-44 37.5 29.7 37.5-35.1V346.5c0-135.8-110.1-245.9-245.9-245.9z" fill="#CD2E1A" p-id="6686"></path><path d="M227.2 478.2c0 30.2 24.5 54.7 54.7 54.7s54.7-24.5 54.7-54.7c0-30.2-24.5-54.7-54.7-54.7s-54.7 24.5-54.7 54.7z m425 0c0 30.2 24.5 54.6 54.6 54.6s54.6-24.5 54.6-54.6c0-30.2-24.5-54.7-54.7-54.7s-54.5 24.5-54.5 54.7z" fill="#CD2E1A" p-id="6687"></path></svg>