<?xml version="1.0" standalone="no"?><!DOCTYPE svg PUBLIC "-//W3C//DTD SVG 1.1//EN" "http://www.w3.org/Graphics/SVG/1.1/DTD/svg11.dtd"><svg t="1602429849141" class="icon" viewBox="0 0 1024 1024" version="1.1" xmlns="http://www.w3.org/2000/svg" p-id="7520" xmlns:xlink="http://www.w3.org/1999/xlink" width="32" height="32"><defs><style type="text/css"></style></defs><path d="M322.460721 277.325h-36.10875c-4.98 0-9.0175 4.78-9.0175 10.66375v21.3375c0 5.88875 4.0375 10.66375 9.0175 10.66375h36.10875c4.98125 0 9.01875-4.775 9.01875-10.66375v-21.3375c0-5.88375-4.0425-10.66375-9.01875-10.66375m406.1625 426.67875H439.794471c-9.97 0-18.05625 9.5575-18.05625 21.33875s8.08125 21.33125 18.05625 21.33125h288.82875c9.96625 0 18.05625-9.55125 18.05625-21.33125-0.005-11.78125-8.08125-21.33875-18.05625-21.33875m-406.1625-213.34h-36.10875c-4.98 0-9.0175 4.77625-9.0175 10.665v21.33625c0 5.895 4.0375 10.66875 9.0175 10.66875h36.10875c4.98125 0 9.01875-4.77375 9.01875-10.66875v-21.33625c0-5.88375-4.0425-10.665-9.01875-10.665m406.1625 0H439.794471c-9.97 0-18.05625 9.55625-18.05625 21.33875 0 11.78125 8.08125 21.3325 18.05625 21.3325h288.82875c9.96625 0 18.05625-9.555 18.05625-21.3325-0.005-11.7825-8.08125-21.33875-18.05625-21.33875M764.721971 0H259.286971C159.584471 0 78.769471 95.5075 78.769471 213.33v597.33375c0 117.8225 80.815 213.335 180.5175 213.335h505.435c99.6875 0 180.5075-95.5075 180.5075-213.335V213.325C945.229471 95.5075 864.409471 0 764.721971 0m144.42375 810.67375c0 94.2575-64.65875 170.67375-144.41375 170.67375H259.271971c-79.755 0-144.41375-76.41125-144.41375-170.67375V213.32c0-94.2575 64.65875-170.66875 144.41375-170.66875h505.455c79.76125 0 144.41375 76.41125 144.41375 170.66875v597.35375h0.005zM728.623221 277.325H439.794471c-9.97 0-18.05625 9.545-18.05625 21.3375 0 11.7825 8.08125 21.3275 18.05625 21.3275h288.82875c9.96625 0 18.05625-9.545 18.05625-21.3275-0.005-11.7875-8.08125-21.3375-18.05625-21.3375m-406.1625 426.67875h-36.10875c-4.98 0-9.0175 4.77625-9.0175 10.66875v21.32875c0 5.895 4.0375 10.66875 9.0175 10.66875h36.10875c4.98125 0 9.01875-4.77375 9.01875-10.66875v-21.32875c0-5.88875-4.0425-10.66875-9.01875-10.66875" fill="#CD2E1A" p-id="7521"></path></svg>