<?xml version="1.0" standalone="no"?><!DOCTYPE svg PUBLIC "-//W3C//DTD SVG 1.1//EN" "http://www.w3.org/Graphics/SVG/1.1/DTD/svg11.dtd"><svg t="1603434153950" class="icon" viewBox="0 0 1024 1024" version="1.1" xmlns="http://www.w3.org/2000/svg" p-id="7488" xmlns:xlink="http://www.w3.org/1999/xlink" width="64" height="64"><defs><style type="text/css"></style></defs><path d="M512 1023.998046A511.999023 511.999023 0 0 1 312.610948 41.080156a511.999023 511.999023 0 0 1 398.778104 942.839689 508.993158 508.993158 0 0 1-199.389052 40.078201z m0-943.841643C273.534702 80.156403 80.15738 274.53568 80.15738 511.999023s193.377322 431.84262 431.84262 431.84262 431.84262-193.377322 431.84262-431.84262S749.463343 80.156403 512 80.156403z" fill="#7979F8" p-id="7489"></path><path d="M320.626588 743.450636a40.078201 40.078201 0 0 1-28.054741-68.132942l381.744869-381.744869a40.383798 40.383798 0 0 1 57.111437 57.111437L349.683284 731.427176a40.078201 40.078201 0 0 1-29.056696 12.02346z" fill="#7979F8" p-id="7490"></path><path d="M702.371457 743.450636a40.078201 40.078201 0 0 1-28.054741-12.02346L292.571847 349.682307a40.383798 40.383798 0 0 1 57.111437-57.111437l380.742914 382.746824a40.078201 40.078201 0 0 1-28.054741 68.132942z" fill="#7979F8" p-id="7491"></path></svg>