<?xml version="1.0" standalone="no"?><!DOCTYPE svg PUBLIC "-//W3C//DTD SVG 1.1//EN" "http://www.w3.org/Graphics/SVG/1.1/DTD/svg11.dtd"><svg t="1603419724766" class="icon" viewBox="0 0 1024 1024" version="1.1" xmlns="http://www.w3.org/2000/svg" p-id="17626" xmlns:xlink="http://www.w3.org/1999/xlink" width="64" height="64"><defs><style type="text/css"></style></defs><path d="M139.242667 714.666667v128.768H266.666667V928H106.666667A53.333333 53.333333 0 0 1 53.333333 874.666667v-160h85.909334zM512 202.666667c130.026667 0 240.746667 52.629333 328.469333 139.989333C901.44 403.392 949.333333 483.882667 949.333333 512c0 26.538667-53.866667 107.605333-118.912 169.514667C738.944 768.554667 630.485333 821.333333 512 821.333333c-118.528 0-227.029333-52.629333-318.4-139.434666C128.362667 619.946667 74.666667 538.986667 74.666667 512c0-26.965333 53.781333-107.925333 119.082666-169.898667C285.162667 255.274667 393.642667 202.666667 512 202.666667z m-0.341333 85.333333c-92.309333 0-182.336 40.789333-262.826667 116.8-29.269333 27.648-55.744 58.816-75.776 88.789333-4.352 6.506667-8.234667 12.757333-11.52 18.432 3.264 5.696 7.168 11.946667 11.498667 18.432 19.989333 29.973333 46.421333 61.12 75.669333 88.746667 80.426667 76.010667 170.474667 116.8 262.954667 116.8 92.373333 0 182.357333-40.874667 262.912-117.12 29.226667-27.669333 55.68-58.88 75.733333-88.896 4.736-7.082667 8.938667-13.845333 12.373333-19.904-2.986667-5.952-6.613333-12.522667-10.666666-19.349333-17.792-29.738667-41.6-60.010667-68.693334-86.826667-76.437333-75.733333-168.149333-115.904-271.658666-115.904z m0.341333 64a160 160 0 1 1 0 320 160 160 0 0 1 0-320z m0 85.333333a74.666667 74.666667 0 1 0 0 149.333334 74.666667 74.666667 0 0 0 0-149.333334z m405.333333-341.333333A53.333333 53.333333 0 0 1 970.666667 149.333333v160h-84.821334V181.397333H757.333333V96H917.333333z" p-id="17627" fill="#8a8a8a"></path></svg>