<?xml version="1.0" standalone="no"?><!DOCTYPE svg PUBLIC "-//W3C//DTD SVG 1.1//EN" "http://www.w3.org/Graphics/SVG/1.1/DTD/svg11.dtd"><svg t="1603417321945" class="icon" viewBox="0 0 1024 1024" version="1.1" xmlns="http://www.w3.org/2000/svg" p-id="3962" xmlns:xlink="http://www.w3.org/1999/xlink" width="64" height="64"><defs><style type="text/css"></style></defs><path d="M509.216095 884.361683c-71.28965 0.005117-142.595672-0.978281-213.864856 0.287549-66.242703 1.176802-99.815333-28.925796-99.336426-95.909373 0.277316-38.611389-3.540639-77.573773 0.366344-115.774817 9.91686-96.894817-8.426927-178.550559-92.563162-241.771439-56.035224-42.103934-49.056276-89.452311 1.102101-143.903457 10.058077-10.917654 21.228487-20.773116 31.778774-31.225165 154.802692-153.346527 155.546635-154.236803 322.382385-14.299681 40.828894 34.249035 70.14764 28.659737 107.631346-4.641717C724.007043 97.372701 724.715171 98.16781 876.458177 248.13845c106.322537 105.078197 104.493889 115.057479 6.954389 221.694171-24.916483 27.238364-40.914852 70.063729-44.862767 107.432825-7.139607 67.573002-1.693572 136.433322-2.286066 204.749244-0.594541 68.449975-32.794917 104.286158-104.272855 102.710266C657.766386 883.087667 583.476403 884.35759 509.216095 884.361683L509.216095 884.361683zM509.216095 884.361683" p-id="3963" fill="#7979F8"></path></svg>