<?xml version="1.0" standalone="no"?><!DOCTYPE svg PUBLIC "-//W3C//DTD SVG 1.1//EN" "http://www.w3.org/Graphics/SVG/1.1/DTD/svg11.dtd"><svg t="1603419605601" class="icon" viewBox="0 0 1024 1024" version="1.1" xmlns="http://www.w3.org/2000/svg" p-id="16302" xmlns:xlink="http://www.w3.org/1999/xlink" width="64" height="64"><defs><style type="text/css"></style></defs><path d="M508.775006 910.480222c-174.14966 0-362.489292-204.077601-361.199294-443.759134A354.749307 354.749307 0 0 1 506.453011 108.875787a354.749307 354.749307 0 0 1 359.135298 357.845301c1.289997 236.069539-185.501638 443.759133-356.813303 443.759134z m0-38.441925c149.123709 0 319.661376-189.887629 318.371378-405.317209A316.307382 316.307382 0 0 0 506.453011 147.059713 316.565382 316.565382 0 0 0 185.501638 466.979088c-0.773998 219.041572 171.053666 405.317208 323.273368 405.317208z m-101.135802-168.473671a19.091963 19.091963 0 1 1 29.153943-25.79995 94.685815 94.685815 0 0 0 149.897707 0 19.091963 19.091963 0 0 1 29.153943 25.79995 133.12774 133.12774 0 0 1-208.463593 0z m-230.135551 134.675737H147.059713a19.091963 19.091963 0 0 1 0-38.441925h79.979844a19.091963 19.091963 0 0 1 19.091962 19.091963v75.851851a19.091963 19.091963 0 1 1-38.441925 0v-32.507936L141.641723 928.798186a19.091963 19.091963 0 0 1-27.089947-27.089947z m660.47871 0l63.209877 63.209876A19.091963 19.091963 0 0 1 874.102293 928.798186l-66.305871-66.305871v32.765936a19.091963 19.091963 0 0 1-38.441925 0v-76.109851a19.091963 19.091963 0 0 1 19.091963-19.091963h79.979844a19.091963 19.091963 0 0 1 0 38.441925z" fill="#ffffff" p-id="16303"></path></svg>