<?xml version="1.0" standalone="no"?><!DOCTYPE svg PUBLIC "-//W3C//DTD SVG 1.1//EN" "http://www.w3.org/Graphics/SVG/1.1/DTD/svg11.dtd"><svg t="1603419353790" class="icon" viewBox="0 0 1024 1024" version="1.1" xmlns="http://www.w3.org/2000/svg" p-id="12931" xmlns:xlink="http://www.w3.org/1999/xlink" width="64" height="64"><defs><style type="text/css"></style></defs><path d="M737.127 688.198c4.025-6.256 12.36-8.064 18.616-4.039 6.255 4.026 8.064 12.36 4.038 18.616-63.207 98.23-164.903 168.075-242.478 168.075-0.74-0.001-0.74-0.001-1.172-0.008-0.74 0.007-0.74 0.007-1.48 0.008-135.98 0-305.512-186.273-305.512-372.665 0-200.278 131.689-345.035 305.512-345.035h2.652c124.051 0 230.67 75.222 278.53 196.462 2.732 6.92-0.663 14.743-7.583 17.474-6.92 2.732-14.743-0.663-17.474-7.583C726.91 248.387 630.108 180.09 517.303 180.09H514.651c-158.347 0-278.573 132.157-278.573 318.096 0 172.05 158.066 345.726 278.573 345.726 0.585-0.001 0.585-0.001 1.48-0.007 0.588 0.006 0.588 0.006 1.172 0.007 67.204 0 161.143-64.517 219.824-155.713z m-291.019-7.864c-4.262-5.655-3.133-13.695 2.522-17.957 5.656-4.262 13.695-3.133 17.958 2.523 11.737 15.573 27.952 24.403 45.116 24.403 17.145 0 33.345-8.81 45.08-24.355 4.267-5.652 12.307-6.775 17.96-2.508 5.65 4.267 6.774 12.307 2.507 17.959-16.392 21.712-39.992 34.549-65.547 34.549-25.581 0-49.203-12.863-65.596-34.614zM743.432 551.72a128.862 128.862 0 0 1 53.702 56.057l7.462 15.136 7.461-15.136a128.862 128.862 0 0 1 53.702-56.057l11.608-6.355-11.608-6.354a126.171 126.171 0 0 1-53.329-56.431l-7.834-16.454-7.834 16.454a126.17 126.17 0 0 1-53.33 56.43l-11.607 6.355 11.607 6.355z m-44.124 5.08c-7.473-7.418-7.473-7.418-5.175-17.694 2.094-3.082 2.094-3.082 5.175-5.175l31.81-17.414a100.526 100.526 0 0 0 42.49-44.962l19.218-40.362c6.984-7.881 6.984-7.881 17.374-6.166 3.79 2.375 3.79 2.375 6.166 6.166l19.218 40.362a100.526 100.526 0 0 0 42.49 44.962l31.81 17.414c7.473 7.418 7.473 7.418 5.174 17.694-2.093 3.082-2.093 3.082-5.174 5.175l-31.81 17.414a103.217 103.217 0 0 0-43.015 44.901l-18.77 38.08c-7.092 7.784-7.092 7.784-17.457 5.928-3.617-2.312-3.617-2.312-5.929-5.929l-18.77-38.079a103.217 103.217 0 0 0-43.015-44.9l-31.81-17.415z" fill="#707070" p-id="12932"></path></svg>