<?xml version="1.0" standalone="no"?><!DOCTYPE svg PUBLIC "-//W3C//DTD SVG 1.1//EN" "http://www.w3.org/Graphics/SVG/1.1/DTD/svg11.dtd"><svg t="1603511208626" class="icon" viewBox="0 0 1024 1024" version="1.1" xmlns="http://www.w3.org/2000/svg" p-id="3091" xmlns:xlink="http://www.w3.org/1999/xlink" width="64" height="64"><defs><style type="text/css"></style></defs><path d="M512 157.80864c-192.22528 0-348.6208 156.38528-348.6208 348.6208S319.77472 855.05024 512 855.05024s348.6208-156.38528 348.6208-348.6208S704.22528 157.80864 512 157.80864zM255.5392 506.42944c0-141.4144 115.0464-256.4608 256.4608-256.4608 55.52128 0 106.93632 17.78688 148.96128 47.89248L303.43168 655.39072C273.33632 613.36576 255.5392 561.95072 255.5392 506.42944zM512 762.89024c-52.66432 0-101.65248-15.9744-142.42816-43.30496l355.584-355.584c27.33056 40.76544 43.30496 89.77408 43.30496 142.42816C768.4608 647.84384 653.4144 762.89024 512 762.89024z" p-id="3092" fill="#dbdbdb"></path></svg>