<?xml version="1.0" standalone="no"?><!DOCTYPE svg PUBLIC "-//W3C//DTD SVG 1.1//EN" "http://www.w3.org/Graphics/SVG/1.1/DTD/svg11.dtd"><svg t="1603419554731" class="icon" viewBox="0 0 1024 1024" version="1.1" xmlns="http://www.w3.org/2000/svg" p-id="15616" xmlns:xlink="http://www.w3.org/1999/xlink" width="64" height="64"><defs><style type="text/css"></style></defs><path d="M517.461333 87.381333c153.429333 0 287.687111 90.282667 347.363556 232.789334l14.279111 41.358222c9.784889 34.872889 14.791111 71.395556 14.791111 108.487111 0.455111 79.985778-19.114667 159.516444-56.32 233.699556l-20.138667 36.408888c-73.329778 120.490667-187.278222 200.590222-297.642666 200.590223-112.355556 0-227.953778-79.36-303.047111-201.728l-20.252445-36.408889a512.341333 512.341333 0 0 1-55.466666-232.106667 404.650667 404.650667 0 0 1 15.701333-111.729778l14.449778-41.301333a372.508444 372.508444 0 0 1 346.282666-230.058667z m0 56.888889A316.757333 316.757333 0 0 0 315.562667 215.608889l44.885333 34.417778 3.754667 3.470222a28.444444 28.444444 0 0 1-38.4 41.642667l-51.2-39.253334c-20.821333 24.689778-38.115556 52.736-50.915556 83.456l-13.198222 38.115556-4.551111 18.204444c-5.404444 24.462222-8.078222 49.550222-8.021334 74.695111a452.096 452.096 0 0 0 32.256 168.504889l38.684445-29.696a28.444444 28.444444 0 0 1 38.456889 41.642667l-3.754667 3.413333-48.355555 37.034667 11.207111 20.024889 8.135111 12.743111c63.715556 96.540444 157.752889 159.857778 245.191111 159.857778 89.315556 0 186.140444-69.859556 249.059555-173.340445l7.964445-14.506666-54.499556-41.756445-3.811555-3.470222a28.444444 28.444444 0 0 1 38.4-41.642667l45.568 34.929778c22.016-53.475556 34.929778-112.64 34.588444-173.795556a344.746667 344.746667 0 0 0-12.686222-93.354666l-13.255111-38.001778-5.461333-12.344889A319.374222 319.374222 0 0 0 762.311111 258.275556l-48.128 36.864a28.444444 28.444444 0 0 1-38.4-41.642667l3.754667-3.470222 42.211555-32.426667a316.700444 316.700444 0 0 0-204.288-73.329778z m-77.482666 568.32c25.429333 11.719111 50.517333 17.749333 74.24 17.749334 22.755556 0 46.933333-5.973333 71.566222-17.635556a28.444444 28.444444 0 0 1 24.348444 51.484444c-31.914667 15.075556-64.341333 23.04-95.914666 23.04a233.813333 233.813333 0 0 1-98.133334-23.04 28.444444 28.444444 0 0 1 23.893334-51.655111z" fill="#8a8a8a" p-id="15617"></path></svg>