<?xml version="1.0" standalone="no"?><!DOCTYPE svg PUBLIC "-//W3C//DTD SVG 1.1//EN" "http://www.w3.org/Graphics/SVG/1.1/DTD/svg11.dtd"><svg t="1603417264717" class="icon" viewBox="0 0 1025 1024" version="1.1" xmlns="http://www.w3.org/2000/svg" p-id="3071" xmlns:xlink="http://www.w3.org/1999/xlink" width="64.0625" height="64"><defs><style type="text/css"></style></defs><path d="M234.666667 234.666667c-23.466667 10.666667-42.666667 32-53.333334 55.466666l-14.933333 42.666667c-10.666667 27.733333-25.6 27.733333-36.266667 0l-14.933333-42.666667C104.533333 264.533333 85.333333 245.333333 61.866667 234.666667L21.333333 219.733333C-6.4 209.066667-6.4 192 21.333333 181.333333l40.533334-14.933333c23.466667-10.666667 42.666667-32 53.333333-55.466667l14.933333-42.666666c10.666667-27.733333 25.6-27.733333 36.266667 0l14.933333 42.666666C192 136.533333 211.2 155.733333 234.666667 166.4l40.533333 14.933333c27.733333 10.666667 27.733333 27.733333 0 38.4L234.666667 234.666667z m759.466666 64c-12.8 4.266667-21.333333 14.933333-27.733333 27.733333l-8.533333 21.333333c-4.266667 12.8-12.8 12.8-17.066667 0l-8.533333-21.333333c-4.266667-12.8-14.933333-21.333333-27.733334-27.733333l-21.333333-8.533334c-12.8-4.266667-12.8-12.8 0-17.066666l21.333333-8.533334c12.8-4.266667 21.333333-14.933333 27.733334-27.733333l8.533333-21.333333c4.266667-12.8 12.8-12.8 17.066667 0l8.533333 21.333333c4.266667 12.8 14.933333 21.333333 27.733333 27.733333l21.333334 8.533334c12.8 4.266667 12.8 12.8 0 17.066666l-21.333334 8.533334z m-625.066666 142.933333c-10.666667-12.8-10.666667-29.866667 2.133333-42.666667s29.866667-10.666667 42.666667 2.133334l68.266666 72.533333c17.066667 17.066667 14.933333 46.933333-2.133333 64-8.533333 8.533333-19.2 12.8-29.866667 12.8h-76.8c-17.066667 0-29.866667-12.8-29.866666-29.866667 0-17.066667 12.8-29.866667 29.866666-29.866666h42.666667l-46.933333-49.066667z m34.133333 253.866667c-8.533333-14.933333-2.133333-32 12.8-40.533334 14.933333-8.533333 32-2.133333 40.533333 12.8 2.133333 2.133333 2.133333 4.266667 4.266667 6.4 4.266667 6.4 8.533333 10.666667 14.933333 14.933334 14.933333 14.933333 36.266667 23.466667 59.733334 21.333333 23.466667 0 44.8-6.4 61.866666-21.333333 6.4-6.4 10.666667-12.8 14.933334-19.2 6.4-14.933333 23.466667-23.466667 38.4-17.066667s23.466667 23.466667 17.066666 38.4v2.133333c-6.4 14.933333-17.066667 29.866667-29.866666 40.533334-27.733333 25.6-64 38.4-102.4 38.4-36.266667 0-72.533333-12.8-98.133334-38.4-14.933333-10.666667-25.6-23.466667-34.133333-38.4zM661.333333 548.266667c27.733333 0 51.2-23.466667 51.2-51.2s-23.466667-51.2-51.2-51.2-51.2 23.466667-51.2 51.2c-2.133333 29.866667 21.333333 51.2 51.2 51.2zM134.4 578.133333c0-221.866667 179.2-401.066667 401.066667-401.066666s401.066667 179.2 401.066666 401.066666-179.2 401.066667-401.066666 401.066667S134.4 800 134.4 578.133333z m72.533333 0c0 179.2 147.2 326.4 326.4 326.4s326.4-145.066667 326.4-326.4S712.533333 251.733333 533.333333 251.733333 206.933333 398.933333 206.933333 578.133333z" p-id="3072" fill="#7979F8"></path></svg>