<?xml version="1.0" standalone="no"?><!DOCTYPE svg PUBLIC "-//W3C//DTD SVG 1.1//EN" "http://www.w3.org/Graphics/SVG/1.1/DTD/svg11.dtd"><svg t="1603417507126" class="icon" viewBox="0 0 1024 1024" version="1.1" xmlns="http://www.w3.org/2000/svg" p-id="12556" xmlns:xlink="http://www.w3.org/1999/xlink" width="64" height="64"><defs><style type="text/css"></style></defs><path d="M619.328 42.375C275.648 46.883-57.789 328.371 11.111 691.018c37.344 196.515 138.786 79.784 181.569-25.238 42.194-104.038 160.102-96.834 146.482 31.954-49.549 467.319 351.811 262.867 557.49 52.437C1167.363 473.089 963.01 37.915 619.328 42.375zM190.571 514.744c-45.375 13.132-90.22-10.146-100.021-51.899-9.752-41.8 19.064-86.25 64.494-99.337 45.427-13.033 90.172 10.343 99.973 52.098 9.851 41.7-18.965 86.199-64.446 99.138z m154.322-153.783c-48.614-24.992-71.793-83.998-51.604-131.778 20.143-47.974 75.861-66.452 124.426-41.652 48.568 25.042 71.648 84.09 51.555 131.824-20.089 47.878-75.812 66.646-124.377 41.606z m263.705 454.582c-53.861 25.775-112.617 8.036-131.242-39.499-18.67-47.583 9.898-107.126 63.759-132.905 53.76-25.678 112.518-7.988 131.188 39.597 18.621 47.587-9.899 106.982-63.705 132.807z m13.767-564.893c-36.07 0-65.373-32.392-65.373-72.235 0-39.893 29.303-72.333 65.373-72.333 36.117 0 65.326 32.391 65.326 72.333 0 39.888-29.209 72.235-65.326 72.235zM872.1 381.35c-36.359 15.827-79.73-10.49-96.932-58.661-17.201-48.273-1.766-100.219 34.648-116.099 36.213-15.828 79.682 10.49 96.932 58.612 17.203 48.322 1.666 100.119-34.648 116.148z m0 0" p-id="12557" fill="#7979F8"></path></svg>