<?xml version="1.0" standalone="no"?><!DOCTYPE svg PUBLIC "-//W3C//DTD SVG 1.1//EN" "http://www.w3.org/Graphics/SVG/1.1/DTD/svg11.dtd"><svg t="1603332557757" class="icon" viewBox="0 0 1024 1024" version="1.1" xmlns="http://www.w3.org/2000/svg" p-id="1467" xmlns:xlink="http://www.w3.org/1999/xlink" width="64" height="64"><defs><style type="text/css"></style></defs><path d="M511.556267 1022.395733c-282.112 0-510.8224-228.693333-510.8224-510.839466 0-282.112 228.693333-510.8224 510.8224-510.8224s510.839467 228.693333 510.839466 510.8224-228.693333 510.839467-510.839466 510.839466z m-245.248-261.034666c0 15.940267 12.680533 28.842667 28.3136 28.842666h433.902933c15.633067 0 28.3136-12.9024 28.3136-28.842666V567.364267a97.450667 97.450667 0 0 1-28.3136 1.365333v-0.017067a112.674133 112.674133 0 0 1-8.004267-1.1264c-0.580267-0.085333-1.160533-0.136533-1.706666-0.238933-1.245867-0.238933-2.423467-0.580267-3.6352-0.853333-5.12-1.194667-10.120533-2.679467-14.933334-4.608V703.709867H322.9184V561.885867a104.277333 104.277333 0 0 1-14.9504 4.608c-1.194667 0.273067-2.389333 0.6144-3.584 0.853333-0.5632 0.1024-1.1776 0.1536-1.723733 0.238933a92.296533 92.296533 0 0 1-8.021334 1.1264v0.017067a97.450667 97.450667 0 0 1-28.296533-1.365333V761.344h-0.034133z m452.795733-528.4352h-415.061333c-15.616 0-28.296533 12.9024-28.296534 28.808533 0 15.940267 12.680533 28.842667 28.296534 28.842667h415.061333c15.633067 0 28.3136-12.9024 28.3136-28.842667-0.034133-15.906133-12.680533-28.808533-28.3136-28.808533z m41.2672 86.4768H262.7584l-53.060267 144.128c0 42.4448 33.792 76.8512 75.4688 76.8512 41.6768 0 75.4688-34.4064 75.4688-76.8512 0 42.4448 33.792 76.8512 75.4688 76.8512 41.6768 0 75.451733-34.4064 75.451734-76.8512 0 42.4448 33.792 76.8512 75.4688 76.8512 41.6768 0 75.4688-34.4064 75.4688-76.8512 0 42.4448 33.792 76.8512 75.4688 76.8512 41.6768 0 75.4688-34.4064 75.4688-76.8512l-53.077334-144.128z" fill="#7979F8" p-id="1468"></path></svg>