<?xml version="1.0" standalone="no"?><!DOCTYPE svg PUBLIC "-//W3C//DTD SVG 1.1//EN" "http://www.w3.org/Graphics/SVG/1.1/DTD/svg11.dtd"><svg t="1603293167342" class="icon" viewBox="0 0 1024 1024" version="1.1" xmlns="http://www.w3.org/2000/svg" p-id="9054" xmlns:xlink="http://www.w3.org/1999/xlink" width="64" height="64"><defs><style type="text/css"></style></defs><path d="M807.936 221.696c-160.768-160.768-420.864-160.768-582.144 0-160.768 160.768-161.28 421.888-0.512 582.656 160.768 160.768 422.912 160.768 583.68 0 160.768-160.768 160.256-421.888-1.024-582.656z m-138.24 268.8v81.408H558.08v32.768h111.616v80.384H558.08v87.04H468.48v-87.04H357.376v-80.384h111.104v-32.768H357.376V490.496H424.96L322.048 289.792h101.888l66.048 137.728c8.192 17.92 14.336 28.672 17.92 41.984 4.096-14.336 10.24-25.6 17.92-41.984l67.584-137.728h101.888l-104.448 200.704h78.848z m0 0" fill="#7979F8" p-id="9055"></path></svg>