<?xml version="1.0" standalone="no"?><!DOCTYPE svg PUBLIC "-//W3C//DTD SVG 1.1//EN" "http://www.w3.org/Graphics/SVG/1.1/DTD/svg11.dtd"><svg t="1603293287537" class="icon" viewBox="0 0 1024 1024" version="1.1" xmlns="http://www.w3.org/2000/svg" p-id="12987" xmlns:xlink="http://www.w3.org/1999/xlink" width="64" height="64"><defs><style type="text/css"></style></defs><path d="M376.248 556.392H114.992A103.294 103.294 0 0 0 11.875 659.568v261.197A103.294 103.294 0 0 0 114.992 1024h261.256a103.294 103.294 0 0 0 103.176-103.176V659.568a103.294 103.294 0 0 0-103.176-103.176z m0-523.343H114.992A103.294 103.294 0 0 0 11.875 136.285v261.197a103.294 103.294 0 0 0 103.117 103.235h261.256a103.294 103.294 0 0 0 103.176-103.235V136.285A103.294 103.294 0 0 0 376.248 33.049z m608.69 157.43L820.818 26.357a95.417 95.417 0 0 0-131.665 0L525.03 190.479a93.166 93.166 0 0 0 0 131.664l164.122 164.181a93.107 93.107 0 0 0 131.724 0L984.94 321.966a93.285 93.285 0 0 0 0-131.487zM936.49 298.274L795.882 439.12a59.228 59.228 0 0 1-81.735 0L573.42 298.274a57.925 57.925 0 0 1 0-81.735L714.147 75.872a57.925 57.925 0 0 1 81.735 0L936.49 216.717a57.925 57.925 0 0 1 0 81.557z m-34.412 258.118H640.881a103.354 103.354 0 0 0-102.998 103.176v261.197a103.294 103.294 0 0 0 103.176 103.176h261.197a103.354 103.354 0 0 0 103.235-103.176V659.568a103.354 103.354 0 0 0-103.413-103.176z" p-id="12988" fill="#7979F8"></path></svg>