<?xml version="1.0" standalone="no"?><!DOCTYPE svg PUBLIC "-//W3C//DTD SVG 1.1//EN" "http://www.w3.org/Graphics/SVG/1.1/DTD/svg11.dtd"><svg t="1603293003663" class="icon" viewBox="0 0 1024 1024" version="1.1" xmlns="http://www.w3.org/2000/svg" p-id="3899" xmlns:xlink="http://www.w3.org/1999/xlink" width="64" height="64"><defs><style type="text/css"></style></defs><path d="M916.992 296.448h-148.48l4.608-6.144c28.16-40.448 43.008-87.552 40.96-132.608-1.024-23.04-6.144-44.032-15.872-62.976-10.24-20.48-24.064-37.376-42.496-49.664-17.92-12.8-38.912-20.48-61.44-22.528-20.992-2.048-42.496 0-64.512 7.168-43.008 13.312-81.92 43.008-110.592 83.968-2.56 3.584-4.608 7.168-7.168 10.752-2.048-3.584-4.608-7.168-7.168-10.752-27.648-40.96-66.56-70.656-109.568-83.968-22.016-7.168-43.52-9.216-64.512-7.168-22.528 2.56-43.008 10.24-61.44 22.528-17.92 12.8-32.256 29.184-42.496 49.664-9.216 18.944-14.336 39.936-15.872 62.976-2.048 45.056 12.288 91.648 40.96 132.608l4.608 6.144H101.376C51.2 296.448 10.24 337.408 10.24 387.584V445.44c0 50.176 40.96 91.136 91.136 91.136h4.608v376.832c0 50.176 40.96 91.136 91.136 91.136h630.272c50.176 0 91.136-40.96 91.136-91.136v-377.344c49.664-0.512 90.112-41.472 90.112-91.136V387.584c-0.512-50.176-41.472-91.136-91.648-91.136z m-342.528-144.896c18.432-29.696 47.104-49.152 75.776-58.368 10.24-3.072 19.968-4.608 29.184-4.608 14.336 0 27.648 4.096 38.912 11.776 17.92 12.8 28.672 34.304 29.696 61.44 1.536 30.208-11.776 68.096-37.888 91.136-57.856 50.688-126.464 47.104-144.384 34.816-13.824-10.24-28.672-76.8 8.704-136.192z m-296.96 9.728c1.024-27.136 11.776-48.64 29.696-61.44 10.752-7.68 24.064-11.776 38.912-11.776 9.216 0 18.944 1.536 29.184 4.608 29.184 9.216 57.344 28.672 75.776 58.368 36.864 59.904 22.528 126.464 9.216 135.68-17.92 12.8-87.04 15.872-144.384-34.816-26.624-22.528-39.424-60.416-38.4-90.624zM76.8 445.44V387.584c0-13.824 11.264-24.576 24.576-24.576h375.296v107.008H101.376c-13.824 0-24.576-11.264-24.576-24.576z m95.232 467.968v-376.832h304.64v401.92H197.12c-13.824 0-25.088-11.264-25.088-25.088z m655.36 25.088h-281.6v-401.92h306.176v376.832c0 13.824-11.264 25.088-24.576 25.088zM941.568 445.44c0 13.824-11.264 24.576-24.576 24.576h-371.2V363.008h371.2c13.824 0 24.576 11.264 24.576 24.576V445.44z" fill="#7979F8" p-id="3900"></path><path d="M808.96 967.68H230.4c-33.792 0-61.44-27.648-61.44-61.44V496.64c0-33.792 27.648-61.44 61.44-61.44h578.56c33.792 0 61.44 27.648 61.44 61.44v409.6c0 33.792-27.648 61.44-61.44 61.44z" fill="#7979F8" opacity=".2" p-id="3901"></path></svg>