<?xml version="1.0" standalone="no"?><!DOCTYPE svg PUBLIC "-//W3C//DTD SVG 1.1//EN" "http://www.w3.org/Graphics/SVG/1.1/DTD/svg11.dtd"><svg t="1603331055468" class="icon" viewBox="0 0 1024 1024" version="1.1" xmlns="http://www.w3.org/2000/svg" p-id="9778" xmlns:xlink="http://www.w3.org/1999/xlink" width="64" height="64"><defs><style type="text/css"></style></defs><path d="M736.867115 0H287.132885A148.061565 148.061565 0 0 0 139.293302 147.839584v728.320832a148.061565 148.061565 0 0 0 147.839583 147.839584h449.73423a148.061565 148.061565 0 0 0 147.839583-147.839584V147.839584A148.061565 148.061565 0 0 0 736.867115 0z m56.605246 724.325168H230.527639A24.417949 24.417949 0 0 1 205.887709 699.685237V177.585086a24.417949 24.417949 0 0 1 24.63993-24.41795h562.944722A24.639931 24.639931 0 0 1 818.112291 177.585086v522.100151a24.639931 24.639931 0 0 1-24.63993 24.639931z" p-id="9779" fill="#7979F8"></path><path d="M507.782354 858.623889m-49.05788 0a49.05788 49.05788 0 1 0 98.11576 0 49.05788 49.05788 0 1 0-98.11576 0Z" p-id="9780" fill="#7979F8"></path></svg>