<?xml version="1.0" standalone="no"?><!DOCTYPE svg PUBLIC "-//W3C//DTD SVG 1.1//EN" "http://www.w3.org/Graphics/SVG/1.1/DTD/svg11.dtd"><svg t="1603330905450" class="icon" viewBox="0 0 1024 1024" version="1.1" xmlns="http://www.w3.org/2000/svg" p-id="3090" xmlns:xlink="http://www.w3.org/1999/xlink" width="64" height="64"><defs><style type="text/css"></style></defs><path d="M511.750814 0C229.289207 0 76.864213 213.763019 76.864213 397.01037c0 190.416233 197.010071 402.76081 430.171241 504.850287l4.792033 2.146831 4.792033-2.146831c233.16117-102.204485 430.17124-314.357381 430.17124-504.850287C946.637415 213.763019 794.212422 0 511.750814 0z m0 526.701958a195.744974 195.744974 0 1 1 195.744974-195.744974 195.706638 195.706638 0 0 1-195.744974 195.744974z m-252.367639 458.118378c0 21.65999 112.976976 39.141328 252.367639 39.141328s252.367639-17.481337 252.367639-39.141328-112.976976-39.141328-252.367639-39.141327-252.367639 17.519674-252.367639 39.179663z" fill="#7979F8" p-id="3091"></path></svg>