<?xml version="1.0" standalone="no"?><!DOCTYPE svg PUBLIC "-//W3C//DTD SVG 1.1//EN" "http://www.w3.org/Graphics/SVG/1.1/DTD/svg11.dtd"><svg t="1603261996083" class="icon" viewBox="0 0 1024 1024" version="1.1" xmlns="http://www.w3.org/2000/svg" p-id="4762" xmlns:xlink="http://www.w3.org/1999/xlink" width="64" height="64"><defs><style type="text/css"></style></defs><path d="M 707.933 245.929 c -64.1136 0 -116.277 52.1546 -116.277 116.268 c 0 64.1208 52.1654 116.286 116.277 116.286 c 64.1118 0 116.275 -52.1654 116.275 -116.286 c 0.001806 -64.1136 -52.1636 -116.268 -116.275 -116.268 Z" fill="#7979F8" p-id="4763"></path><path d="M 1017.99 803.35 l -92.6572 -92.6572 c -10.8265 -10.8355 -25.2257 -16.8051 -40.546 -16.8051 c -15.3095 0 -29.7105 5.97136 -40.5352 16.8051 l -126.795 126.786 l 88.1814 88.1851 h 57.9977 c 75.1134 0 137.876 -52.2323 154.354 -122.314 Z" fill="#7979F8" p-id="4764"></path><path d="M 671.26 791.283 l 126.786 -126.795 c 23.1756 -23.1666 53.9789 -35.9257 86.7401 -35.9257 c 32.772 0 63.5753 12.7591 86.7419 35.9257 l 50.8252 50.836 v -470.827 c 0 -87.6612 -71.0567 -158.729 -158.718 -158.729 H 161.422 c -87.6522 0 -158.718 71.0657 -158.718 158.729 v 387.965 l 156.951 -156.951 c 26.1541 -26.145 60.931 -40.5532 97.9242 -40.5532 c 36.9914 0 71.7575 14.4082 97.9152 40.5532 l 312.926 312.935 l 2.83938 2.83757 Z m -148.128 -429.086 c 0 -101.898 82.9055 -184.793 184.802 -184.793 c 101.896 0 184.8 82.8946 184.8 184.793 c 0 101.905 -82.9055 184.809 -184.8 184.809 c -101.896 0.001806 -184.802 -82.9037 -184.802 -184.809 Z" fill="#7979F8" p-id="4765"></path><path d="M 625.064 837.483 L 309.295 521.717 c -13.8176 -13.8158 -32.1814 -21.4344 -51.7193 -21.4344 c -19.5397 0 -37.9125 7.61863 -51.7193 21.4344 L 2.7021 724.856 v 42.0867 c 0 87.6612 71.0657 158.722 158.718 158.722 h 375.462 l 88.1814 -88.1814 Z" fill="#7979F8" p-id="4766"></path><path d="M 629.265 925.664 h 83.9802 l -88.1814 -88.1814 l -88.1796 88.1814 Z" fill="#7979F8" p-id="4767"></path></svg>