<?xml version="1.0" standalone="no"?><!DOCTYPE svg PUBLIC "-//W3C//DTD SVG 1.1//EN" "http://www.w3.org/Graphics/SVG/1.1/DTD/svg11.dtd"><svg t="1603262398464" class="icon" viewBox="0 0 1181 1024" version="1.1" xmlns="http://www.w3.org/2000/svg" p-id="5626" xmlns:xlink="http://www.w3.org/1999/xlink" width="73.8125" height="64"><defs><style type="text/css"></style></defs><path d="M996.864 179.712c40.723692 0 75.618462 14.375385 104.408615 43.323077 28.947692 28.947692 43.323077 63.566769 43.323077 104.369231v516.883692c0 40.723692-14.375385 75.618462-43.323077 104.408615-28.947692 28.947692-63.566769 43.323077-104.36923 43.323077H184.635077a141.981538 141.981538 0 0 1-104.408615-43.323077c-28.790154-28.908308-43.323077-63.527385-43.323077-104.36923V327.286154c0-40.684308 14.375385-75.618462 43.323077-104.369231 28.947692-28.829538 63.566769-43.362462 104.36923-43.362461h129.339077l29.380923-78.375385c7.168-18.825846 20.755692-35.170462 40.172308-48.718769 19.337846-13.587692 39.305846-20.48 59.628308-20.48h295.384615c20.48 0 40.251077 6.774154 59.628308 20.48 19.416615 13.548308 32.846769 29.892923 40.172307 48.718769l29.341539 78.375385h129.457231v0.118153h-0.275693zM408.260923 768.275692c50.569846 50.569846 111.458462 75.894154 182.508308 75.894154 71.168 0 131.938462-25.324308 182.508307-75.894154 50.530462-50.530462 75.854769-111.458462 75.85477-182.468923 0-71.168-25.324308-131.938462-75.85477-182.508307C722.707692 352.768 661.819077 327.443692 590.769231 327.443692c-71.049846 0-131.938462 25.324308-182.508308 75.85477-50.530462 50.530462-75.854769 111.458462-75.854769 182.508307 0 71.010462 25.206154 131.938462 75.854769 182.468923z m65.220923-299.874461c32.531692-32.571077 71.601231-48.758154 117.287385-48.758154 45.686154 0 84.873846 16.187077 117.287384 48.758154 32.531692 32.531692 48.718769 71.561846 48.71877 117.248s-16.187077 84.873846-48.71877 117.287384c-32.531692 32.531692-71.601231 48.758154-117.287384 48.758154-45.686154 0-84.873846-16.226462-117.287385-48.758154-32.531692-32.531692-48.718769-71.601231-48.718769-117.287384 0-45.686154 16.187077-84.716308 48.718769-117.248z" fill="#ffffff" p-id="5627"></path></svg>