<?xml version="1.0" standalone="no"?><!DOCTYPE svg PUBLIC "-//W3C//DTD SVG 1.1//EN" "http://www.w3.org/Graphics/SVG/1.1/DTD/svg11.dtd"><svg t="1603293104608" class="icon" viewBox="0 0 1024 1024" version="1.1" xmlns="http://www.w3.org/2000/svg" p-id="7380" xmlns:xlink="http://www.w3.org/1999/xlink" width="64" height="64"><defs><style type="text/css"></style></defs><path d="M964.43733333 232.768H58.144c-14.25066667 0-25.80266667 11.552-25.80266667 25.80266667v505.984c0 14.25066667 11.552 25.80266667 25.80266667 25.80266666h906.29333333c14.25066667 0 25.80266667-11.552 25.80266667-25.80266666V258.58133333c0-14.26133333-11.552-25.81333333-25.80266667-25.81333333z m-25.80266666 505.984H83.94666667V284.384h86.05866666v160.832c0 14.25066667 11.552 25.80266667 25.80266667 25.80266667 14.25066667 0 25.80266667-11.552 25.80266667-25.80266667V284.384h73.61066666v298.47466667c0 14.25066667 11.552 25.80266667 25.80266667 25.80266666 14.25066667 0 25.80266667-11.552 25.80266667-25.80266666V284.384h73.61066666v126.42133333c0 14.25066667 11.552 25.80266667 25.80266667 25.80266667 14.25066667 0 25.80266667-11.552 25.80266667-25.80266667V284.384h73.61066666v195.24266667c0 14.25066667 11.552 25.80266667 25.80266667 25.80266666 14.25066667 0 25.80266667-11.552 25.80266667-25.80266666V284.384h73.61066666v264.064c0 14.25066667 11.552 25.80266667 25.80266667 25.80266667 14.25066667 0 25.80266667-11.552 25.80266667-25.80266667V284.384h73.61066666v160.832c0 14.25066667 11.552 25.80266667 25.80266667 25.80266667s25.80266667-11.552 25.80266667-25.80266667V284.384h90.89066666v454.368z" fill="#7979F8" p-id="7381"></path></svg>