<?xml version="1.0" standalone="no"?><!DOCTYPE svg PUBLIC "-//W3C//DTD SVG 1.1//EN" "http://www.w3.org/Graphics/SVG/1.1/DTD/svg11.dtd"><svg t="1604471866398" class="icon" viewBox="0 0 1024 1024" version="1.1" xmlns="http://www.w3.org/2000/svg" p-id="2901" xmlns:xlink="http://www.w3.org/1999/xlink" width="64" height="64"><defs><style type="text/css"></style></defs><path d="M796.444444 967.111111c0 28.444444-28.444444 56.888889-56.888888 56.888889H284.444444c-28.444444 0-56.888889-28.444444-56.888888-56.888889s28.444444-56.888889 56.888888-56.888889h455.111112c28.444444 0 56.888889 28.444444 56.888888 56.888889zM512 284.444444v455.111112-455.111112zM284.444444 512v227.555556-227.555556z m625.777778-455.111111M910.222222 0H113.777778C51.2 0 0 51.2 0 113.777778v568.888889c0 62.577778 51.2 113.777778 113.777778 113.777777h796.444444c62.577778 0 113.777778-51.2 113.777778-113.777777V113.777778c0-62.577778-51.2-113.777778-113.777778-113.777778zM113.777778 682.666667V113.777778h796.444444v568.888889h-113.777778V398.222222c0-28.444444-28.444444-56.888889-56.888888-56.888889s-56.888889 28.444444-56.888889 56.888889v284.444445h-113.777778V284.444444c0-28.444444-28.444444-56.888889-56.888889-56.888888s-56.888889 28.444444-56.888889 56.888888v398.222223H341.333333V512c0-28.444444-28.444444-56.888889-56.888889-56.888889s-56.888889 28.444444-56.888888 56.888889v170.666667H113.777778z" p-id="2902" fill="#ffffff"></path></svg>