<?xml version="1.0" standalone="no"?><!DOCTYPE svg PUBLIC "-//W3C//DTD SVG 1.1//EN" "http://www.w3.org/Graphics/SVG/1.1/DTD/svg11.dtd"><svg t="1603330930153" class="icon" viewBox="0 0 1024 1024" version="1.1" xmlns="http://www.w3.org/2000/svg" p-id="3978" xmlns:xlink="http://www.w3.org/1999/xlink" width="64" height="64"><defs><style type="text/css"></style></defs><path d="M924.546 797.993c0-129.807-31.223-328.985-203.469-328.985-18.277 0-95.331 79.823-210.461 79.823-115.339 0-192.323-79.823-210.6-79.823-172.177 0-203.4 199.177-203.4 328.915 0 92.977 63.485 148.707 156.946 148.707h513.9c93.531 0 157.015-55.731 157.015-148.707zM736.307 285.269c0-121.707-101.077-220.5-225.761-220.5-124.615 0-225.761 98.793-225.761 220.5s101.077 220.5 225.761 220.5c124.615 0 225.831-98.793 225.831-220.5z" p-id="3979" fill="#7979F8"></path></svg>