<?xml version="1.0" standalone="no"?><!DOCTYPE svg PUBLIC "-//W3C//DTD SVG 1.1//EN" "http://www.w3.org/Graphics/SVG/1.1/DTD/svg11.dtd"><svg t="1603292944592" class="icon" viewBox="0 0 1024 1024" version="1.1" xmlns="http://www.w3.org/2000/svg" p-id="3094" xmlns:xlink="http://www.w3.org/1999/xlink" width="64" height="64"><defs><style type="text/css"></style></defs><path d="M277.942857 73.142857c109.714286 0 204.8 87.771429 204.8 204.8v204.8H277.942857C160.914286 475.428571 73.142857 387.657143 73.142857 277.942857S160.914286 73.142857 277.942857 73.142857z m468.114286 0C863.085714 73.142857 950.857143 160.914286 950.857143 277.942857s-87.771429 204.8-204.8 204.8H548.571429V277.942857C548.571429 160.914286 636.342857 73.142857 746.057143 73.142857zM277.942857 548.571429h204.8v204.8c0 109.714286-87.771429 204.8-204.8 204.8S73.142857 863.085714 73.142857 746.057143s87.771429-197.485714 204.8-197.485714z m270.628572 0h204.8c109.714286 0 204.8 87.771429 204.8 204.8S863.085714 950.857143 746.057143 950.857143s-204.8-87.771429-204.8-204.8V548.571429z" p-id="3095" fill="#7979F8"></path></svg>