<?xml version="1.0" standalone="no"?><!DOCTYPE svg PUBLIC "-//W3C//DTD SVG 1.1//EN" "http://www.w3.org/Graphics/SVG/1.1/DTD/svg11.dtd"><svg t="1604471924829" class="icon" viewBox="0 0 1024 1024" version="1.1" xmlns="http://www.w3.org/2000/svg" p-id="6230" xmlns:xlink="http://www.w3.org/1999/xlink" width="64" height="64"><defs><style type="text/css"></style></defs><path d="M704.554667 128h86.784C824.917333 128 853.333333 158.165333 853.333333 196.437333v631.125334c0 38.357333-28.373333 68.437333-62.122666 68.437333H232.789333C199.082667 896 170.666667 865.834667 170.666667 827.562667V196.437333C170.666667 158.122667 199.082667 128 232.661333 128h87.04a42.666667 42.666667 0 1 0 0-85.333333h-87.04C150.741333 42.666667 85.333333 112.085333 85.333333 196.437333v631.125334C85.333333 911.786667 150.784 981.333333 232.789333 981.333333h558.421334C873.258667 981.333333 938.666667 911.957333 938.666667 827.562667V196.437333C938.666667 112.213333 873.258667 42.666667 791.338667 42.666667h-86.784a42.666667 42.666667 0 1 0 0 85.333333z" p-id="6231" fill="#ffffff"></path><path d="M469.333333 128h85.333334a42.666667 42.666667 0 0 0 0-85.333333h-85.333334a42.666667 42.666667 0 1 0 0 85.333333zM341.333333 341.333333h341.333334a42.666667 42.666667 0 0 0 0-85.333333H341.333333a42.666667 42.666667 0 1 0 0 85.333333zM341.333333 554.666667h341.333334a42.666667 42.666667 0 0 0 0-85.333334H341.333333a42.666667 42.666667 0 0 0 0 85.333334zM341.333333 768h341.333334a42.666667 42.666667 0 0 0 0-85.333333H341.333333a42.666667 42.666667 0 0 0 0 85.333333z" p-id="6232" fill="#ffffff"></path></svg>