<?xml version="1.0" standalone="no"?><!DOCTYPE svg PUBLIC "-//W3C//DTD SVG 1.1//EN" "http://www.w3.org/Graphics/SVG/1.1/DTD/svg11.dtd"><svg t="1603293129764" class="icon" viewBox="0 0 1024 1024" version="1.1" xmlns="http://www.w3.org/2000/svg" p-id="8230" xmlns:xlink="http://www.w3.org/1999/xlink" width="64" height="64"><defs><style type="text/css"></style></defs><path d="M512 25.6C156.672 25.6 25.088 336.384 25.088 510.464S151.552 998.4 501.76 998.4c0 0 87.04 1.536 87.04-76.8s-38.912-53.248-38.912-109.568c0-56.32 38.912-81.408 57.856-81.408s142.336 9.216 211.456-17.408c68.608-26.624 179.712-111.104 179.712-255.488C998.912 330.24 867.328 25.6 512 25.6z m-296.96 486.4c-22.528 0-44.032-8.704-59.904-25.088-15.872-15.872-24.576-37.376-24.576-59.904-1.024-30.72 14.848-59.392 41.472-75.264 26.624-15.872 59.392-15.872 86.016 0 26.624 15.872 42.496 44.544 41.472 75.264 0.512 47.104-37.376 84.992-84.48 84.992z m159.744-209.408c-22.528 0-44.032-8.704-59.904-25.088-15.872-15.872-24.576-37.376-24.576-59.904 0-46.592 37.888-84.48 84.48-84.48s84.48 37.888 84.48 84.48c0 47.104-37.888 84.992-84.48 84.992z m270.848 0c-46.592 0-84.48-37.888-84.48-84.992-1.024-30.72 14.848-59.392 41.472-75.264 26.624-15.36 59.392-15.36 86.016 0 26.624 15.872 42.496 44.544 41.472 75.264 0.512 47.104-37.376 84.992-84.48 84.992z m161.28 209.408c-46.592 0-84.48-37.888-84.48-84.992-1.024-30.72 14.848-59.392 41.472-75.264 26.624-15.872 59.392-15.872 86.016 0 26.624 15.872 42.496 44.544 41.472 75.264 0 22.528-8.704 44.032-24.576 59.904-15.872 16.384-37.376 25.088-59.904 25.088z" fill="#7979F8" p-id="8231"></path></svg>